<svg width="931" height="800" viewBox="0 0 931 800" fill="none" xmlns="http://www.w3.org/2000/svg">
<path d="M32.0391 26.501L32.0371 26.4727C31.8628 23.4719 32.3036 20.4677 33.3359 17.6143L33.5498 17.0449C34.6612 14.2119 36.3432 11.5899 38.5117 9.31543L38.9521 8.86523C41.1854 6.63754 43.8575 4.80881 46.8311 3.47461L47.4297 3.21484C50.443 1.94698 53.6898 1.20479 57.002 1.02734L57.665 1H376.643C487.159 1 587.227 45.6928 659.737 117.857V117.856C735.427 194.586 777.19 294.27 776.999 397.521L776.987 399.96V399.969C776.987 619.973 597.676 799 376.643 799H57.6416C54.4302 798.977 51.2589 798.379 48.3057 797.246L47.7178 797.013C44.5995 795.728 41.8147 793.865 39.5381 791.548H39.5371C34.7782 786.697 32.1277 780.452 32.0391 773.982V26.501Z" stroke="url(#paint0_linear_4_784)" stroke-width="2"/>
<path d="M62.0391 26.501L62.0371 26.4727C61.8625 23.4719 62.3041 20.4677 63.3379 17.6143L63.5518 17.0459C64.6646 14.213 66.3491 11.5909 68.5205 9.31641L68.9619 8.86621C71.1983 6.63837 73.8737 4.80891 76.8516 3.47461L77.4512 3.21484C80.4685 1.94703 83.7195 1.20485 87.0361 1.02734L87.7012 1H407.105C517.767 1.00001 617.967 45.6898 690.574 117.851V117.852C766.369 194.582 808.19 294.268 807.999 397.521L807.987 399.96V399.969C807.987 619.972 628.437 799 407.105 799H87.6768C84.4606 798.977 81.2846 798.38 78.3271 797.246L77.7393 797.013C74.6166 795.728 71.8276 793.865 69.5479 791.548H69.5488C64.7828 786.697 62.1278 780.452 62.0391 773.982V26.501Z" stroke="url(#paint1_linear_4_784)" stroke-width="2"/>
<path d="M93.0391 26.501L93.0371 26.4727C92.8628 23.4719 93.3036 20.4677 94.3359 17.6143L94.5498 17.0449C95.6612 14.2119 97.3432 11.5899 99.5117 9.31543L99.9521 8.86523C102.185 6.63754 104.857 4.80881 107.831 3.47461L108.43 3.21484C111.443 1.94698 114.69 1.20479 118.002 1.02734L118.665 1H437.643C548.159 1 648.227 45.6928 720.737 117.857V117.856C796.427 194.586 838.19 294.27 837.999 397.521L837.987 399.96V399.969C837.987 619.973 658.676 799 437.643 799H118.642C115.43 798.977 112.259 798.379 109.306 797.246L108.718 797.013C105.6 795.728 102.815 793.865 100.538 791.548H100.537C95.7782 786.697 93.1277 780.452 93.0391 773.982V26.501Z" stroke="url(#paint2_linear_4_784)" stroke-width="2"/>
<path d="M123.039 26.501L123.037 26.4727C122.863 23.4719 123.304 20.4677 124.338 17.6143L124.552 17.0459C125.665 14.213 127.349 11.5909 129.521 9.31641L129.962 8.86621C132.198 6.63837 134.874 4.80891 137.852 3.47461L138.451 3.21484C141.469 1.94703 144.72 1.20485 148.036 1.02734L148.701 1H468.105C578.767 1.00001 678.967 45.6898 751.574 117.851V117.852C827.369 194.582 869.19 294.268 868.999 397.521L868.987 399.96V399.969C868.987 619.972 689.437 799 468.105 799H148.677C145.461 798.977 142.285 798.38 139.327 797.246L138.739 797.013C135.617 795.728 132.828 793.865 130.548 791.548H130.549C125.783 786.697 123.128 780.452 123.039 773.982V26.501Z" stroke="url(#paint3_linear_4_784)" stroke-width="2"/>
<path d="M154.039 26.501L154.037 26.4727C153.863 23.4719 154.304 20.4677 155.336 17.6143L155.55 17.0449C156.661 14.2119 158.343 11.5899 160.512 9.31543L160.952 8.86523C163.185 6.63754 165.857 4.80881 168.831 3.47461L169.43 3.21484C172.443 1.94698 175.69 1.20479 179.002 1.02734L179.665 1H498.643C609.159 1 709.227 45.6928 781.737 117.857V117.856C857.427 194.586 899.19 294.27 898.999 397.521L898.987 399.96V399.969C898.987 619.973 719.676 799 498.643 799H179.642C176.43 798.977 173.259 798.379 170.306 797.246L169.718 797.013C166.6 795.728 163.815 793.865 161.538 791.548H161.537C156.778 786.697 154.128 780.452 154.039 773.982V26.501Z" stroke="url(#paint4_linear_4_784)" stroke-width="2"/>
<path d="M184.039 26.501L184.037 26.4727C183.863 23.4719 184.304 20.4677 185.338 17.6143L185.552 17.0459C186.665 14.213 188.349 11.5909 190.521 9.31641L190.962 8.86621C193.198 6.63837 195.874 4.80891 198.852 3.47461L199.451 3.21484C202.469 1.94703 205.72 1.20485 209.036 1.02734L209.701 1H529.105C639.767 1.00001 739.967 45.6898 812.574 117.851V117.852C888.369 194.582 930.19 294.268 929.999 397.521L929.987 399.96V399.969C929.987 619.972 750.437 799 529.105 799H209.677C206.461 798.977 203.285 798.38 200.327 797.246L199.739 797.013C196.617 795.728 193.828 793.865 191.548 791.548H191.549C186.783 786.697 184.128 780.452 184.039 773.982V26.501Z" stroke="url(#paint5_linear_4_784)" stroke-width="2"/>
<path d="M747.987 399.969C747.987 620.528 567.985 800 346.105 800H26.67C23.1132 799.974 19.6013 799.272 16.3584 797.937C13.1154 796.603 10.2126 794.665 7.83507 792.249C2.7378 787.06 -0.0440865 780.315 0.0388808 773.344V26.5303C-0.155831 23.1834 0.382185 19.8347 1.62136 16.68C2.86054 13.5254 4.77598 10.6281 7.25575 8.1577C9.73551 5.68734 12.7298 3.69347 16.0633 2.29275C19.3968 0.892025 23.0027 0.112582 26.67 0H346.105C457.045 0 557.499 44.805 630.286 117.148C706.856 194.663 748.849 295.569 747.987 399.969Z" fill="url(#paint6_linear_4_784)"/>
<defs>
<linearGradient id="paint0_linear_4_784" x1="704.195" y1="632.501" x2="-54.0753" y2="153.866" gradientUnits="userSpaceOnUse">
<stop stop-color="#FB129F"/>
<stop offset="0.15" stop-color="#DF13B1"/>
<stop offset="0.42" stop-color="#B214CE"/>
<stop offset="0.66" stop-color="#9115E3"/>
<stop offset="0.86" stop-color="#7D16EF"/>
<stop offset="1" stop-color="#7616F4"/>
</linearGradient>
<linearGradient id="paint1_linear_4_784" x1="735.096" y1="632.501" x2="-23.61" y2="152.95" gradientUnits="userSpaceOnUse">
<stop stop-color="#FB129F"/>
<stop offset="0.15" stop-color="#DF13B1"/>
<stop offset="0.42" stop-color="#B214CE"/>
<stop offset="0.66" stop-color="#9115E3"/>
<stop offset="0.86" stop-color="#7D16EF"/>
<stop offset="1" stop-color="#7616F4"/>
</linearGradient>
<linearGradient id="paint2_linear_4_784" x1="765.195" y1="632.501" x2="6.92471" y2="153.866" gradientUnits="userSpaceOnUse">
<stop stop-color="#FB129F"/>
<stop offset="0.15" stop-color="#DF13B1"/>
<stop offset="0.42" stop-color="#B214CE"/>
<stop offset="0.66" stop-color="#9115E3"/>
<stop offset="0.86" stop-color="#7D16EF"/>
<stop offset="1" stop-color="#7616F4"/>
</linearGradient>
<linearGradient id="paint3_linear_4_784" x1="796.096" y1="632.501" x2="37.39" y2="152.95" gradientUnits="userSpaceOnUse">
<stop stop-color="#FB129F"/>
<stop offset="0.15" stop-color="#DF13B1"/>
<stop offset="0.42" stop-color="#B214CE"/>
<stop offset="0.66" stop-color="#9115E3"/>
<stop offset="0.86" stop-color="#7D16EF"/>
<stop offset="1" stop-color="#7616F4"/>
</linearGradient>
<linearGradient id="paint4_linear_4_784" x1="826.195" y1="632.501" x2="67.9247" y2="153.866" gradientUnits="userSpaceOnUse">
<stop stop-color="#FB129F"/>
<stop offset="0.15" stop-color="#DF13B1"/>
<stop offset="0.42" stop-color="#B214CE"/>
<stop offset="0.66" stop-color="#9115E3"/>
<stop offset="0.86" stop-color="#7D16EF"/>
<stop offset="1" stop-color="#7616F4"/>
</linearGradient>
<linearGradient id="paint5_linear_4_784" x1="857.096" y1="632.501" x2="98.39" y2="152.95" gradientUnits="userSpaceOnUse">
<stop stop-color="#FB129F"/>
<stop offset="0.15" stop-color="#DF13B1"/>
<stop offset="0.42" stop-color="#B214CE"/>
<stop offset="0.66" stop-color="#9115E3"/>
<stop offset="0.86" stop-color="#7D16EF"/>
<stop offset="1" stop-color="#7616F4"/>
</linearGradient>
<linearGradient id="paint6_linear_4_784" x1="674.096" y1="632.501" x2="-84.61" y2="152.95" gradientUnits="userSpaceOnUse">
<stop stop-color="#FB129F"/>
<stop offset="0.15" stop-color="#DF13B1"/>
<stop offset="0.42" stop-color="#B214CE"/>
<stop offset="0.66" stop-color="#9115E3"/>
<stop offset="0.86" stop-color="#7D16EF"/>
<stop offset="1" stop-color="#7616F4"/>
</linearGradient>
</defs>
</svg>
