<svg width="60" height="60" viewBox="0 0 60 60" fill="none" xmlns="http://www.w3.org/2000/svg">
<path d="M39.1555 16.1315C31.5094 16.1315 25.311 22.378 25.311 30.0834C25.311 37.7889 31.5094 44.0354 39.1555 44.0354C46.8016 44.0354 53 37.7889 53 30.0834C53 22.378 46.8016 16.1315 39.1555 16.1315Z" fill="url(#paint0_linear_4_407)"/>
<path d="M6.00057 30.0016C6.00057 18.9736 14.1578 10 24.2129 10L38.689 10C38.8501 10.0013 39.0093 10.0364 39.1563 10.1031C39.3032 10.1699 39.4348 10.2667 39.5425 10.3875C39.7735 10.647 39.8996 10.9843 39.8958 11.3328L39.8958 48.6735C39.9046 48.8408 39.8803 49.0083 39.8241 49.166C39.7679 49.3237 39.6811 49.4686 39.5688 49.5921C39.4564 49.7156 39.3207 49.8153 39.1696 49.8854C39.0186 49.9554 38.8552 49.9944 38.689 50L24.2129 50C19.1854 50 14.6331 47.7598 11.3345 44.1426C7.86455 40.2668 5.96149 35.2215 6.00057 30.0016Z" fill="url(#paint1_linear_4_407)"/>
<defs>
<linearGradient id="paint0_linear_4_407" x1="25.311" y1="30.0834" x2="53" y2="30.0834" gradientUnits="userSpaceOnUse">
<stop offset="0.13" stop-color="white" stop-opacity="0.3"/>
<stop offset="0.33" stop-color="#FFE5BD" stop-opacity="0.51"/>
<stop offset="0.55" stop-color="#FFCC7C" stop-opacity="0.72"/>
<stop offset="0.75" stop-color="#FFBA4C" stop-opacity="0.87"/>
<stop offset="0.9" stop-color="#FFAE2F" stop-opacity="0.97"/>
<stop offset="1" stop-color="#FFAA24"/>
</linearGradient>
<linearGradient id="paint1_linear_4_407" x1="9.34914" y1="18.375" x2="45.5782" y2="39.1296" gradientUnits="userSpaceOnUse">
<stop stop-color="#FB129F"/>
<stop offset="0.15" stop-color="#DF13B1"/>
<stop offset="0.42" stop-color="#B214CE"/>
<stop offset="0.66" stop-color="#9115E3"/>
<stop offset="0.86" stop-color="#7D16EF"/>
<stop offset="1" stop-color="#7616F4"/>
</linearGradient>
</defs>
</svg>
