<svg width="60" height="60" viewBox="0 0 60 60" fill="none" xmlns="http://www.w3.org/2000/svg">
<path d="M13.0006 30.0016C13.0006 18.9736 21.1825 10 31.2679 10L45.7877 10C45.9494 10.0013 46.109 10.0364 46.2564 10.1031C46.4038 10.1699 46.5358 10.2667 46.6439 10.3876C46.8756 10.647 47.002 10.9843 46.9982 11.3328L46.9982 48.6735C47.0071 48.8408 46.9826 49.0083 46.9263 49.166C46.87 49.3237 46.7829 49.4686 46.6702 49.5921C46.5575 49.7156 46.4214 49.8153 46.2698 49.8854C46.1183 49.9554 45.9544 49.9944 45.7877 50L31.2679 50C26.2252 50 21.6592 47.7598 18.3507 44.1426C14.8702 40.2668 12.9614 35.2215 13.0006 30.0016Z" fill="url(#paint0_linear_4_404)"/>
<defs>
<linearGradient id="paint0_linear_4_404" x1="16.3593" y1="18.375" x2="52.6435" y2="39.224" gradientUnits="userSpaceOnUse">
<stop stop-color="#FB129F"/>
<stop offset="0.15" stop-color="#DF13B1"/>
<stop offset="0.42" stop-color="#B214CE"/>
<stop offset="0.66" stop-color="#9115E3"/>
<stop offset="0.86" stop-color="#7D16EF"/>
<stop offset="1" stop-color="#7616F4"/>
</linearGradient>
</defs>
</svg>
