<svg width="126" height="235" viewBox="0 0 126 235" fill="none" xmlns="http://www.w3.org/2000/svg">
<path d="M126 235C195.588 235 252 178.812 252 109.5C252 40.1883 195.588 -16 126 -16C56.4121 -16 0 40.1883 0 109.5C0 178.812 56.4121 235 126 235Z" fill="url(#paint0_linear_2003_27)"/>
<path d="M97 99C140.63 99 176 63.8544 176 20.5C176 -22.8544 140.63 -58 97 -58C53.3695 -58 18 -22.8544 18 20.5C18 63.8544 53.3695 99 97 99Z" fill="url(#paint1_linear_2003_27)"/>
<defs>
<linearGradient id="paint0_linear_2003_27" x1="252" y1="109.5" x2="0" y2="109.5" gradientUnits="userSpaceOnUse">
<stop stop-color="#FFB600"/>
<stop offset="1" stop-color="#FB129F"/>
</linearGradient>
<linearGradient id="paint1_linear_2003_27" x1="176.006" y1="20.5" x2="18" y2="20.5" gradientUnits="userSpaceOnUse">
<stop stop-color="#00EF9F"/>
<stop offset="0.13" stop-color="#04EAA1"/>
<stop offset="0.29" stop-color="#10DAA8"/>
<stop offset="0.47" stop-color="#23C0B4"/>
<stop offset="0.66" stop-color="#3E9DC3"/>
<stop offset="0.86" stop-color="#606FD7"/>
<stop offset="1" stop-color="#7A4CE7"/>
</linearGradient>
</defs>
</svg>
