<svg width="1849" height="76" viewBox="0 0 1849 76" fill="none" xmlns="http://www.w3.org/2000/svg">
<path d="M1071 69L1849 69.0001" stroke="url(#paint0_linear_2001_10)" stroke-width="2.6"/>
<path opacity="0.6" d="M1043 46L1821 46.0001" stroke="url(#paint1_linear_2001_10)" stroke-width="2.6"/>
<path opacity="0.4" d="M1017 25L1794 25.0001" stroke="url(#paint2_linear_2001_10)" stroke-width="2.6"/>
<path opacity="0.2" d="M996 2L1774 2.00005" stroke="url(#paint3_linear_2001_10)" stroke-width="2.6"/>
<path d="M778 74L-3.14713e-05 74.0001" stroke="url(#paint4_linear_2001_10)" stroke-width="2.6"/>
<path opacity="0.6" d="M806 51L28 51.0001" stroke="url(#paint5_linear_2001_10)" stroke-width="2.6"/>
<path opacity="0.4" d="M832 30L55 30.0001" stroke="url(#paint6_linear_2001_10)" stroke-width="2.6"/>
<path opacity="0.2" d="M853 7L75 7.00005" stroke="url(#paint7_linear_2001_10)" stroke-width="2.6"/>
<defs>
<linearGradient id="paint0_linear_2001_10" x1="1071" y1="69" x2="1832.69" y2="69.0001" gradientUnits="userSpaceOnUse">
<stop stop-color="white"/>
<stop offset="1" stop-color="#FFB600"/>
</linearGradient>
<linearGradient id="paint1_linear_2001_10" x1="1043" y1="46" x2="1804.69" y2="46.0001" gradientUnits="userSpaceOnUse">
<stop stop-color="white"/>
<stop offset="1" stop-color="#FFB600"/>
</linearGradient>
<linearGradient id="paint2_linear_2001_10" x1="1017" y1="25" x2="1777.72" y2="25.0001" gradientUnits="userSpaceOnUse">
<stop stop-color="white"/>
<stop offset="1" stop-color="#FFB600"/>
</linearGradient>
<linearGradient id="paint3_linear_2001_10" x1="996" y1="2" x2="1757.69" y2="2.0001" gradientUnits="userSpaceOnUse">
<stop stop-color="white"/>
<stop offset="1" stop-color="#FFB600"/>
</linearGradient>
<linearGradient id="paint4_linear_2001_10" x1="778" y1="74" x2="16.3054" y2="74.0001" gradientUnits="userSpaceOnUse">
<stop stop-color="white"/>
<stop offset="1" stop-color="#FFB600"/>
</linearGradient>
<linearGradient id="paint5_linear_2001_10" x1="806" y1="51" x2="44.3054" y2="51.0001" gradientUnits="userSpaceOnUse">
<stop stop-color="white"/>
<stop offset="1" stop-color="#FFB600"/>
</linearGradient>
<linearGradient id="paint6_linear_2001_10" x1="832" y1="30" x2="71.2845" y2="30.0001" gradientUnits="userSpaceOnUse">
<stop stop-color="white"/>
<stop offset="1" stop-color="#FFB600"/>
</linearGradient>
<linearGradient id="paint7_linear_2001_10" x1="853" y1="7" x2="91.3054" y2="7.0001" gradientUnits="userSpaceOnUse">
<stop stop-color="white"/>
<stop offset="1" stop-color="#FFB600"/>
</linearGradient>
</defs>
</svg>
