<svg width="255" height="60" viewBox="0 0 255 60" fill="none" xmlns="http://www.w3.org/2000/svg">
<path d="M18.876 0H40.0486C56.5589 0 69.9742 13.4387 69.9742 30C69.9742 46.5613 56.5688 60 40.0486 60H18.876V0Z" fill="url(#paint0_linear_4_223)"/>
<path d="M242.995 41.1463L236.541 32.3374L235.924 31.8435L228.155 21.7997H231.731L237.733 29.703L238.308 30.197L246.53 41.1463H242.995ZM227.826 41.1463L235.965 30.5263L237.568 32.6667L231.238 41.1463H227.826ZM238.514 31.8023L236.87 29.703L242.789 21.7997H246.201L238.514 31.8023Z" fill="white"/>
<path d="M214.18 41.5579C212.344 41.5579 210.7 41.1188 209.248 40.2407C207.795 39.3351 206.644 38.1277 205.795 36.6183C204.973 35.109 204.562 33.4077 204.562 31.5142C204.562 29.5932 204.973 27.8781 205.795 26.3688C206.644 24.8321 207.795 23.6246 209.248 22.7465C210.7 21.8409 212.331 21.3881 214.139 21.3881C215.619 21.3881 216.935 21.69 218.086 22.2937C219.264 22.87 220.209 23.6932 220.922 24.7635C221.662 25.8063 222.114 27.0274 222.278 28.427V34.4779C222.114 35.8774 221.662 37.1123 220.922 38.1825C220.209 39.2528 219.264 40.0897 218.086 40.6935C216.935 41.2697 215.633 41.5579 214.18 41.5579ZM214.633 38.8C216.633 38.8 218.236 38.1277 219.442 36.783C220.675 35.4383 221.292 33.6683 221.292 31.473C221.292 30.0186 221.004 28.7425 220.429 27.6449C219.881 26.5197 219.1 25.6553 218.086 25.0516C217.099 24.4204 215.934 24.1049 214.592 24.1049C213.221 24.1049 212.002 24.4204 210.933 25.0516C209.892 25.6828 209.056 26.5609 208.426 27.686C207.823 28.7837 207.521 30.046 207.521 31.473C207.521 32.9 207.823 34.1623 208.426 35.26C209.056 36.3577 209.905 37.2221 210.974 37.8532C212.043 38.4844 213.262 38.8 214.633 38.8ZM221.127 41.1463V35.9597L221.703 31.1849L221.127 26.5335V21.7997H224.005V41.1463H221.127Z" fill="white"/>
<path d="M170.91 41.1463V21.7997H173.788V41.1463H170.91ZM184.188 41.1463V29.2914C184.188 27.6997 183.708 26.4374 182.749 25.5044C181.79 24.5439 180.584 24.0637 179.132 24.0637C178.145 24.0637 177.241 24.2832 176.419 24.7223C175.624 25.1339 174.98 25.7239 174.487 26.4923C174.021 27.2607 173.788 28.18 173.788 29.2502L172.472 28.7151C172.472 27.2332 172.801 25.9435 173.459 24.8458C174.117 23.7481 174.994 22.8974 176.09 22.2937C177.213 21.69 178.474 21.3881 179.872 21.3881C181.242 21.3881 182.461 21.69 183.53 22.2937C184.626 22.8974 185.489 23.7481 186.12 24.8458C186.777 25.9435 187.106 27.247 187.106 28.7563V41.1463H184.188ZM197.506 41.1463V29.2914C197.506 27.6997 197.027 26.4374 196.068 25.5044C195.108 24.5439 193.889 24.0637 192.409 24.0637C191.45 24.0637 190.559 24.2832 189.737 24.7223C188.942 25.1339 188.298 25.7239 187.805 26.4923C187.339 27.2607 187.106 28.18 187.106 29.2502L185.38 28.7151C185.462 27.2332 185.846 25.9435 186.531 24.8458C187.243 23.7481 188.161 22.8974 189.285 22.2937C190.436 21.69 191.697 21.3881 193.067 21.3881C194.437 21.3881 195.67 21.69 196.766 22.2937C197.89 22.8974 198.767 23.7481 199.397 24.8458C200.055 25.9435 200.384 27.247 200.384 28.7563V41.1463H197.506Z" fill="white"/>
<path d="M159.408 41.5579C158.366 41.5579 157.366 41.4207 156.407 41.1463C155.448 40.8444 154.571 40.4328 153.776 39.9114C153.009 39.39 152.337 38.7725 151.762 38.059L153.612 36.1656C154.379 37.0986 155.242 37.7983 156.201 38.2649C157.188 38.7039 158.284 38.9235 159.49 38.9235C160.778 38.9235 161.778 38.6765 162.491 38.1825C163.231 37.6886 163.6 37.0025 163.6 36.1244C163.6 35.3011 163.34 34.6563 162.819 34.1897C162.299 33.7232 161.627 33.3528 160.805 33.0784C160.01 32.8039 159.161 32.5432 158.257 32.2963C157.352 32.0218 156.489 31.6925 155.667 31.3083C154.845 30.8967 154.173 30.3342 153.653 29.6207C153.159 28.9072 152.913 27.9742 152.913 26.8216C152.913 25.7239 153.173 24.7772 153.694 23.9814C154.242 23.1581 155.009 22.527 155.996 22.0879C157.01 21.6214 158.202 21.3881 159.572 21.3881C161.024 21.3881 162.34 21.6488 163.518 22.1702C164.697 22.6916 165.642 23.46 166.355 24.4753L164.505 26.3277C163.929 25.5867 163.203 25.0242 162.326 24.64C161.477 24.2283 160.517 24.0225 159.449 24.0225C158.216 24.0225 157.27 24.2695 156.612 24.7635C155.982 25.23 155.667 25.8474 155.667 26.6158C155.667 27.3567 155.927 27.9467 156.448 28.3858C156.969 28.7974 157.626 29.1404 158.421 29.4149C159.243 29.6618 160.106 29.9225 161.011 30.197C161.915 30.4439 162.778 30.787 163.6 31.226C164.423 31.6377 165.08 32.2139 165.574 32.9549C166.094 33.6683 166.355 34.6425 166.355 35.8774C166.355 37.6063 165.724 38.9921 164.464 40.0349C163.231 41.0502 161.545 41.5579 159.408 41.5579Z" fill="white"/>
<path d="M145.187 41.1463V29.7853C145.187 28.0839 144.68 26.7118 143.666 25.669C142.679 24.5988 141.364 24.0637 139.72 24.0637C138.596 24.0637 137.61 24.3107 136.76 24.8046C135.911 25.2986 135.239 25.9709 134.746 26.8216C134.253 27.6723 134.006 28.6465 134.006 29.7442L132.691 29.0032C132.691 27.5488 133.033 26.2453 133.718 25.0928C134.403 23.9402 135.321 23.0346 136.472 22.376C137.651 21.7174 138.994 21.3881 140.501 21.3881C141.981 21.3881 143.296 21.7449 144.447 22.4583C145.598 23.1718 146.489 24.1323 147.119 25.3397C147.777 26.5472 148.106 27.8644 148.106 29.2914V41.1463H145.187ZM131.129 41.1463V21.7997H134.006V41.1463H131.129Z" fill="white"/>
<path d="M122.377 41.1463V21.7998H125.296V41.1463H122.377ZM123.816 17.6011C123.268 17.6011 122.802 17.4091 122.418 17.0249C122.035 16.6132 121.843 16.133 121.843 15.5842C121.843 15.0079 122.035 14.5277 122.418 14.1435C122.802 13.7593 123.268 13.5672 123.816 13.5672C124.419 13.5672 124.899 13.7593 125.255 14.1435C125.638 14.5277 125.83 15.0079 125.83 15.5842C125.83 16.133 125.638 16.6132 125.255 17.0249C124.899 17.4091 124.419 17.6011 123.816 17.6011Z" fill="white"/>
<path d="M107.77 41.5579C105.906 41.5579 104.207 41.1051 102.673 40.1995C101.165 39.2939 99.9595 38.0728 99.0551 36.536C98.1782 34.9993 97.7397 33.2842 97.7397 31.3907C97.7397 29.5246 98.1782 27.837 99.0551 26.3277C99.9595 24.8183 101.165 23.6246 102.673 22.7465C104.207 21.8409 105.906 21.3881 107.77 21.3881C109.661 21.3881 111.36 21.8272 112.867 22.7053C114.374 23.5835 115.566 24.7909 116.443 26.3277C117.348 27.837 117.8 29.5246 117.8 31.3907C117.8 33.3116 117.348 35.0404 116.443 36.5772C115.566 38.0865 114.374 39.2939 112.867 40.1995C111.36 41.1051 109.661 41.5579 107.77 41.5579ZM107.77 38.7588C109.14 38.7588 110.346 38.4432 111.387 37.8121C112.456 37.1809 113.292 36.3028 113.895 35.1777C114.525 34.0525 114.84 32.7902 114.84 31.3907C114.84 29.9911 114.525 28.7563 113.895 27.686C113.292 26.5883 112.456 25.7239 111.387 25.0928C110.346 24.4616 109.14 24.146 107.77 24.146C106.427 24.146 105.221 24.4616 104.152 25.0928C103.084 25.7239 102.248 26.5883 101.645 27.686C101.042 28.7563 100.74 29.9911 100.74 31.3907C100.74 32.8177 101.042 34.0937 101.645 35.2188C102.248 36.3165 103.084 37.1809 104.152 37.8121C105.221 38.4432 106.427 38.7588 107.77 38.7588Z" fill="white"/>
<path d="M87.9801 41.5579C86.0892 41.5579 84.3764 41.1188 82.8418 40.2407C81.3346 39.3351 80.1288 38.1139 79.2244 36.5772C78.3475 35.0404 77.909 33.3253 77.909 31.4318C77.909 29.5383 78.3475 27.837 79.2244 26.3277C80.1288 24.7909 81.3346 23.5835 82.8418 22.7053C84.3764 21.8272 86.0892 21.3881 87.9801 21.3881C89.4326 21.3881 90.7891 21.6625 92.0497 22.2114C93.3103 22.7602 94.379 23.5286 95.256 24.5165L93.3651 26.4511C92.7074 25.7102 91.9126 25.1477 90.9809 24.7635C90.0491 24.3518 89.0489 24.146 87.9801 24.146C86.6099 24.146 85.3904 24.4616 84.3216 25.0928C83.2529 25.7239 82.417 26.5883 81.8141 27.686C81.2112 28.7563 80.9098 30.0049 80.9098 31.4318C80.9098 32.8314 81.2112 34.0937 81.8141 35.2188C82.417 36.3165 83.2529 37.1809 84.3216 37.8121C85.3904 38.4432 86.6099 38.7588 87.9801 38.7588C89.0763 38.7588 90.0903 38.5667 91.022 38.1825C91.9538 37.7709 92.7485 37.1946 93.4062 36.4537L95.3382 38.3883C94.4338 39.4037 93.3377 40.1858 92.0497 40.7346C90.7891 41.2835 89.4326 41.5579 87.9801 41.5579Z" fill="white"/>
<path d="M20.8277 50.7016C32.3304 50.7016 41.6553 41.3535 41.6553 29.8221C41.6553 18.2907 32.3304 8.94269 20.8277 8.94269C9.32486 8.94269 0 18.2907 0 29.8221C0 41.3535 9.32486 50.7016 20.8277 50.7016Z" fill="url(#paint1_linear_4_223)"/>
<defs>
<linearGradient id="paint0_linear_4_223" x1="64.3262" y1="47.8557" x2="9.49329" y2="16.284" gradientUnits="userSpaceOnUse">
<stop stop-color="#FF00A1"/>
<stop offset="0.11" stop-color="#EB00AF"/>
<stop offset="0.39" stop-color="#BE00D0"/>
<stop offset="0.65" stop-color="#9D00E8"/>
<stop offset="0.86" stop-color="#8900F7"/>
<stop offset="1" stop-color="#8200FD"/>
</linearGradient>
<linearGradient id="paint1_linear_4_223" x1="41.6553" y1="29.8221" x2="0" y2="29.8221" gradientUnits="userSpaceOnUse">
<stop offset="0.13" stop-color="white" stop-opacity="0.3"/>
<stop offset="0.33" stop-color="#FFE3B2" stop-opacity="0.51"/>
<stop offset="0.55" stop-color="#24C2B4"/>
<stop offset="0.75" stop-color="#38A5BF"/>
<stop offset="0.9" stop-color="#5C77D4"/>
<stop offset="1" stop-color="#6964DC"/>
</linearGradient>
</defs>
</svg>
