<svg width="72" height="72" viewBox="0 0 72 72" fill="none" xmlns="http://www.w3.org/2000/svg">
<path fill-rule="evenodd" clip-rule="evenodd" d="M31.98 0.579C31.299 0.843 30.525 1.3905 29.6745 2.37C28.3695 3.873 27.0915 6.174 25.9725 9.198C24.78 12.4185 23.8185 16.326 23.1795 20.688H42.819C42.18 16.326 41.217 12.4185 40.026 9.198C38.907 6.174 37.629 3.873 36.324 2.37C35.4735 1.3905 34.698 0.843 34.0185 0.579C33.3387 0.557977 32.6598 0.557977 31.98 0.579ZM18.633 20.688H2.98051C6.79501 11.4 14.793 4.2735 24.63 1.653C23.541 3.3675 22.581 5.3955 21.7515 7.6365C20.379 11.3475 19.3095 15.792 18.6345 20.6865M1.50901 40.812H18.135C17.9175 38.2137 17.8094 35.6074 17.811 33C17.811 30.33 17.9235 27.714 18.1365 25.188H1.50901C0.878743 27.7441 0.560921 30.3673 0.562506 33C0.562506 35.694 0.891006 38.31 1.50901 40.812ZM18.6315 45.312C19.035 48.252 19.581 51.027 20.2485 53.5815V62.8365C12.4212 59.4787 6.22188 53.1867 2.98051 45.3105L18.6315 45.312ZM44.247 7.6365C43.4175 5.3955 42.456 3.3675 41.367 1.6515C51.207 4.272 59.205 11.3985 63.018 20.6865H47.364C46.689 15.792 45.6195 11.3475 44.247 7.6365ZM64.491 25.1865H47.862C48.0345 27.24 48.141 29.3505 48.174 31.5015C49.7021 31.5196 51.2176 31.7809 52.6635 32.2755C54.8595 33.0255 58.3515 34.2915 63.1395 36.2355C63.8575 36.5275 64.539 36.8075 65.184 37.0755C65.6825 33.104 65.4476 29.0732 64.491 25.1865ZM43.3455 25.188C43.5497 27.5077 43.6623 29.8345 43.683 32.163L43.335 32.277C41.1375 33.027 37.6455 34.293 32.859 36.237C29.874 37.4505 27.531 38.4615 25.7325 39.273C24.8619 39.6645 24.0545 40.1838 23.337 40.8135H22.6515C22.4229 38.2153 22.3093 35.6082 22.311 33C22.311 30.3105 22.431 27.6945 22.653 25.188H43.3455ZM44.7915 35.7855C46.8716 35.0727 49.1299 35.0727 51.21 35.7855C53.325 36.5085 56.7375 37.743 61.4475 39.6555C63.7893 40.6019 66.1132 41.5921 68.418 42.6255C70.197 43.428 71.253 45.0735 71.253 46.86C71.253 48.6465 70.197 50.292 68.418 51.0945C66.1132 52.1274 63.7893 53.1171 61.4475 54.063C56.7375 55.977 53.325 57.2115 51.21 57.933C49.1294 58.6461 46.8706 58.6461 44.79 57.933C42.6765 57.2115 39.264 55.977 34.554 54.063C32.7765 53.3429 31.0083 52.5999 29.25 51.834V64.95C29.25 65.5467 29.013 66.119 28.591 66.541C28.169 66.963 27.5967 67.2 27 67.2C26.4033 67.2 25.831 66.963 25.409 66.541C24.9871 66.119 24.75 65.5467 24.75 64.95V47.0205L24.747 46.8585C24.747 45.072 25.8045 43.4265 27.582 42.624C29.8873 41.5906 32.2117 40.6004 34.554 39.654C39.264 37.7415 42.6765 36.5085 44.7915 35.7855ZM43.3365 62.19C41.1615 61.4475 37.716 60.1995 33 58.287C33.0075 61.203 33.159 63.117 33.3225 64.347C33.43 65.2021 33.7439 66.0183 34.2373 66.7249C34.7307 67.4316 35.3887 68.0075 36.1545 68.403C38.2005 69.4605 42.0435 70.8585 48 70.8585C53.9565 70.8585 57.798 69.4605 59.8455 68.403C60.6112 68.0072 61.269 67.431 61.7622 66.724C62.2553 66.0171 62.569 65.2008 62.676 64.3455C62.841 63.117 62.991 61.203 63 58.2885C58.284 60.201 54.84 61.4475 52.665 62.19C49.635 63.225 46.365 63.225 43.335 62.19" fill="url(#paint0_linear_650_7129)"/>
<path fill-rule="evenodd" clip-rule="evenodd" d="M31.98 0.579244C31.299 0.843244 30.525 1.39074 29.6745 2.37024C28.3695 3.87324 27.0915 6.17424 25.9725 9.19824C24.78 12.4187 23.8185 16.3262 23.1795 20.6882H42.819C42.18 16.3262 41.217 12.4187 40.026 9.19824C38.907 6.17424 37.629 3.87324 36.324 2.37024C35.4735 1.39074 34.698 0.843244 34.0185 0.579244C33.3387 0.558221 32.6598 0.558221 31.98 0.579244ZM18.633 20.6882H2.98051C6.79501 11.4002 14.793 4.27374 24.63 1.65324C23.541 3.36774 22.581 5.39574 21.7515 7.63674C20.379 11.3477 19.3095 15.7922 18.6345 20.6867M1.50901 40.8122H18.135C17.9175 38.2139 17.8094 35.6076 17.811 33.0002C17.811 30.3302 17.9235 27.7142 18.1365 25.1882H1.50901C0.878743 27.7444 0.560921 30.3675 0.562506 33.0002C0.562506 35.6942 0.891006 38.3102 1.50901 40.8122ZM18.6315 45.3122C19.035 48.2522 19.581 51.0272 20.2485 53.5817V62.8367C12.4212 59.4789 6.22188 53.1869 2.98051 45.3107L18.6315 45.3122ZM44.247 7.63674C43.4175 5.39574 42.456 3.36774 41.367 1.65174C51.207 4.27224 59.205 11.3987 63.018 20.6867H47.364C46.689 15.7922 45.6195 11.3477 44.247 7.63674ZM64.491 25.1867H47.862C48.0345 27.2402 48.141 29.3507 48.174 31.5017C49.7021 31.5199 51.2176 31.7812 52.6635 32.2757C54.8595 33.0257 58.3515 34.2917 63.1395 36.2357C63.8575 36.5277 64.539 36.8077 65.184 37.0757C65.6825 33.1042 65.4476 29.0734 64.491 25.1867ZM43.3455 25.1882C43.5497 27.5079 43.6623 29.8347 43.683 32.1632L43.335 32.2772C41.1375 33.0272 37.6455 34.2932 32.859 36.2372C29.874 37.4507 27.531 38.4617 25.7325 39.2732C24.8619 39.6648 24.0545 40.184 23.337 40.8137H22.6515C22.4229 38.2155 22.3093 35.6085 22.311 33.0002C22.311 30.3107 22.431 27.6947 22.653 25.1882H43.3455Z" fill="url(#paint1_linear_650_7129)"/>
<path d="M51.2101 35.7856C49.1299 35.0728 46.8717 35.0728 44.7916 35.7856C42.6766 36.5086 39.2641 37.7416 34.5541 39.6541C32.2117 40.6005 29.8873 41.5907 27.5821 42.6241C25.8046 43.4266 24.7471 45.0721 24.7471 46.8586L24.7501 47.0206V64.9501C24.7501 65.5468 24.9871 66.1191 25.4091 66.5411C25.831 66.963 26.4033 67.2001 27.0001 67.2001C27.5968 67.2001 28.1691 66.963 28.5911 66.5411C29.013 66.1191 29.2501 65.5468 29.2501 64.9501V51.8341C31.0084 52.6 32.7765 53.343 34.5541 54.0631C39.2641 55.9771 42.6766 57.2116 44.7901 57.9331C46.8707 58.6462 49.1295 58.6462 51.2101 57.9331C53.3251 57.2116 56.7376 55.9771 61.4476 54.0631C63.7894 53.1171 66.1133 52.1275 68.4181 51.0946C70.1971 50.2921 71.2531 48.6466 71.2531 46.8601C71.2531 45.0736 70.1971 43.4281 68.4181 42.6256C66.1133 41.5922 63.7894 40.602 61.4476 39.6556C56.7376 37.7431 53.3251 36.5086 51.2101 35.7856Z" fill="url(#paint2_linear_650_7129)"/>
<defs>
<linearGradient id="paint0_linear_650_7129" x1="5.31582" y1="18.1473" x2="66.3635" y2="53.5914" gradientUnits="userSpaceOnUse">
<stop stop-color="white" stop-opacity="0.3"/>
<stop offset="0.19" stop-color="#FFE4B2" stop-opacity="0.51"/>
<stop offset="0.38" stop-color="#FFCD72" stop-opacity="0.68"/>
<stop offset="0.56" stop-color="#FFBB40" stop-opacity="0.82"/>
<stop offset="0.72" stop-color="#FFAF1D" stop-opacity="0.92"/>
<stop offset="0.88" stop-color="#FFA707" stop-opacity="0.98"/>
<stop offset="1" stop-color="#FFA500"/>
</linearGradient>
<linearGradient id="paint1_linear_650_7129" x1="0.5625" y1="31.7107" x2="65.4496" y2="31.7107" gradientUnits="userSpaceOnUse">
<stop stop-color="#FF00A1"/>
<stop offset="0.11" stop-color="#EB00AF"/>
<stop offset="0.39" stop-color="#BE00D0"/>
<stop offset="0.65" stop-color="#9D00E8"/>
<stop offset="0.86" stop-color="#8900F7"/>
<stop offset="1" stop-color="#8200FD"/>
</linearGradient>
<linearGradient id="paint2_linear_650_7129" x1="27.8742" y1="44.1581" x2="62.1087" y2="69.973" gradientUnits="userSpaceOnUse">
<stop stop-color="white" stop-opacity="0.3"/>
<stop offset="0.19" stop-color="#FFE4B2" stop-opacity="0.51"/>
<stop offset="0.38" stop-color="#FFCD72" stop-opacity="0.68"/>
<stop offset="0.56" stop-color="#FFBB40" stop-opacity="0.82"/>
<stop offset="0.72" stop-color="#FFAF1D" stop-opacity="0.92"/>
<stop offset="0.88" stop-color="#FFA707" stop-opacity="0.98"/>
<stop offset="1" stop-color="#FFA500"/>
</linearGradient>
</defs>
</svg>
