<svg width="63" height="57" viewBox="0 0 63 57" fill="none" xmlns="http://www.w3.org/2000/svg">
<path d="M13.5681 12.2625H54.4954V11.8801C54.4954 8.50507 51.773 5.78252 48.398 5.78252L22.4329 5.75999C22.2755 2.56503 19.598 0 16.358 0H6.09804C2.74542 0 0.000488281 2.72255 0.000488281 6.09755V28.6426L5.42293 17.3926C6.93053 14.2876 10.1255 12.2625 13.5681 12.2625Z" fill="url(#paint0_linear_650_7113)"/>
<path d="M9.47288 19.3366L0.225276 38.5292C-0.112141 39.2267 -0.0672347 40.0592 0.337886 40.7116C0.765392 41.3642 1.48527 41.7692 2.25033 41.7692H32.8279V39.0466C32.8279 34.7941 35.2578 31.1491 38.7678 29.2817C39.8479 24.3317 44.2578 20.6191 49.5229 20.6191C54.4953 20.6191 58.7029 23.9267 60.0528 28.4716L62.5503 23.2966C63.2253 21.8791 63.1353 20.2367 62.3028 18.9091C61.4703 17.5592 60.0303 16.7717 58.4553 16.7717H13.5679C11.8354 16.7717 10.2378 17.7841 9.47288 19.3366Z" fill="url(#paint1_linear_650_7113)"/>
<path d="M49.5223 25.1133C45.9265 25.1133 43.002 28.0378 43.002 31.6348V32.5413C39.7983 32.9961 37.3187 35.7285 37.3187 39.0549V50.2456C37.3187 53.8909 40.2828 56.855 43.927 56.855H55.1177C58.7618 56.855 61.726 53.8909 61.726 50.2456V39.0549C61.726 35.7285 59.2463 32.9961 56.0427 32.5413V31.6348C56.0427 28.0378 53.1182 25.1133 49.5223 25.1133ZM51.5427 32.4478H47.502V31.6348C47.502 30.5208 48.4083 29.6133 49.5223 29.6133C50.6364 29.6133 51.5427 30.5208 51.5427 31.6348V32.4478Z" fill="#FFAE2F"/>
<defs>
<linearGradient id="paint0_linear_650_7113" x1="54.4954" y1="14.3213" x2="0.000488281" y2="14.3213" gradientUnits="userSpaceOnUse">
<stop stop-color="#FB129F"/>
<stop offset="1" stop-color="#7616F4"/>
</linearGradient>
<linearGradient id="paint1_linear_650_7113" x1="62.9989" y1="29.2705" x2="0" y2="29.2705" gradientUnits="userSpaceOnUse">
<stop stop-color="#FB129F"/>
<stop offset="1" stop-color="#7616F4"/>
</linearGradient>
</defs>
</svg>
