<svg width="72" height="72" viewBox="0 0 72 72" fill="none" xmlns="http://www.w3.org/2000/svg">
<path d="M60.1384 46.1672C60.1384 35.7023 53.4436 26.7727 44.1125 23.433C47.1625 21.0278 49.1238 17.3007 49.1238 13.124C49.1239 5.88741 43.2367 0 36.0001 0C28.7635 0 22.8763 5.88741 22.8763 13.1238C22.8763 17.3005 24.8377 21.0277 27.8876 23.4329C18.5566 26.7727 11.8618 35.7022 11.8618 46.1672C11.8618 50.3899 13.867 54.1524 16.9745 56.5546C17.3065 46.3468 25.7128 38.1445 36.0001 38.1445C46.2874 38.1445 54.6937 46.3468 55.0258 56.5546C58.1333 54.1523 60.1384 50.3897 60.1384 46.1672Z" fill="url(#paint0_linear_650_7106)"/>
<path d="M36 42.3633C27.8291 42.3633 21.1816 49.0108 21.1816 57.1816C21.1816 65.3525 27.8291 72 36 72C44.1709 72 50.8184 65.3525 50.8184 57.1816C50.8184 49.0108 44.1709 42.3633 36 42.3633ZM34.775 62.0857C34.7624 62.0858 34.7497 62.0859 34.7372 62.0859C34.1782 62.0859 33.6416 61.864 33.2457 61.468L30.5681 58.7902C29.7443 57.9665 29.7443 56.631 30.5681 55.8072C31.3919 54.9835 32.7275 54.9835 33.5512 55.8072L34.6829 56.9389L38.3964 52.9494C39.1904 52.0966 40.5252 52.0491 41.3775 52.8427C42.2302 53.6363 42.2781 54.9712 41.4844 55.8239L36.2812 61.4137C35.8913 61.8328 35.3474 62.0754 34.775 62.0857Z" fill="#FFAE2F"/>
<defs>
<linearGradient id="paint0_linear_650_7106" x1="60.1384" y1="28.2773" x2="11.8618" y2="28.2773" gradientUnits="userSpaceOnUse">
<stop stop-color="#FB129F"/>
<stop offset="1" stop-color="#7616F4"/>
</linearGradient>
</defs>
</svg>
