<svg width="72" height="72" viewBox="0 0 72 72" fill="none" xmlns="http://www.w3.org/2000/svg">
<path d="M38.5196 27.0694C41.6154 27.0694 44.1406 24.5443 44.1406 21.4484V12.4559H53.8004C55.6546 12.4559 57.1716 13.973 57.1716 15.8271V32.3788C57.1716 34.2329 55.6546 35.75 53.8004 35.75H49.4183V43.3377L43.1136 35.75H32.9863C31.1323 35.75 29.615 34.2329 29.615 32.3788V27.0694H38.5196Z" fill="#FFAE2F"/>
<path fill-rule="evenodd" clip-rule="evenodd" d="M63.5335 33.6846C62.2689 36.5877 60.6264 39.8721 59.3079 42.2404C61.1242 44.8822 59.2594 48.2493 56.7094 51.206C55.1938 52.9633 53.4649 54.5488 52.2316 55.6797L52.2049 55.7042C51.8265 56.0513 51.496 56.3544 51.2744 56.5669C50.8243 56.9998 50.1082 56.9861 49.6751 56.5358C49.2421 56.0856 49.2559 55.3696 49.706 54.9365C50.0041 54.6507 50.3281 54.3536 50.6987 54.0138L50.6993 54.0132C51.8992 52.9129 53.581 51.3706 54.9991 49.7262C56.1081 48.4403 57.0774 47.0807 57.4944 45.8525C58.193 43.7943 56.7316 42.3896 54.8218 42.8689C54.0751 43.0562 53.246 43.5602 52.346 44.4436C49.2417 47.4904 46.2319 50.0116 42.8102 52.7828C37.8846 57.0679 38.1151 64.4406 38.4196 70.4747H51.6877C52.2647 64.8988 53.9647 63.2706 56.2662 61.0665C56.7083 60.6431 57.1725 60.1985 57.6553 59.7006C57.8976 59.4506 58.1547 59.2038 58.4213 58.948C59.6856 57.7346 61.1611 56.3185 62.2686 53.4014L69.3659 34.4616C69.8871 32.9409 70.3908 31.1161 70.4862 30.2409C69.4374 27.7089 66.2131 27.5333 63.5335 33.6846ZM29.1899 44.1767C25.7683 41.4055 22.7585 38.8841 19.6542 35.8375C18.7542 34.9541 17.925 34.4502 17.1783 34.2627C15.2685 33.7836 13.8071 35.1883 14.5057 37.2464C14.9227 38.4746 15.8919 39.8342 17.001 41.12C18.4195 42.7647 20.1015 44.3073 21.3014 45.4077C21.672 45.7475 21.9958 46.0446 22.2941 46.3303C22.7443 46.7633 22.7582 47.4794 22.325 47.9297C21.8921 48.3798 21.176 48.3937 20.7257 47.9606C20.5009 47.7453 20.164 47.4363 19.7788 47.0829L19.7685 47.0734L19.7674 47.0724C18.5344 45.9416 16.8061 44.3566 15.2907 42.5997C12.7408 39.6431 10.8759 36.2759 12.6922 33.6342C11.3737 31.2659 9.73138 27.9815 8.46659 25.0784C5.78698 18.927 2.56245 19.1028 1.51367 21.6346C1.60902 22.5097 2.11259 24.3346 2.63389 25.8553L9.73123 44.7951C10.8388 47.7123 12.3142 49.1283 13.5786 50.3417C13.8451 50.5975 14.1022 50.8443 14.3446 51.0943C14.8274 51.5923 15.2916 52.0369 15.7337 52.4603C18.0352 54.6644 19.7353 56.2926 20.3123 61.8684H33.5804C33.8848 55.8345 34.1156 48.4618 29.1899 44.1767Z" fill="url(#paint0_linear_650_7119)"/>
<path fill-rule="evenodd" clip-rule="evenodd" d="M14.3342 21.4483V4.89659C14.3342 3.04245 15.8512 1.52539 17.7054 1.52539H38.5197C40.3738 1.52539 41.8909 3.04245 41.8909 4.89659V21.4483C41.8909 23.3023 40.3737 24.8195 38.5197 24.8195H28.3923L22.0877 32.4072V24.8195H17.7055C15.8514 24.8195 14.3342 23.3024 14.3342 21.4483ZM35.142 15.0473C34.1065 15.0473 33.2671 14.2079 33.2671 13.1725C33.2671 12.137 34.1066 11.2976 35.142 11.2976C36.1775 11.2976 37.0168 12.1371 37.0168 13.1725C37.0168 14.2079 36.1776 15.0473 35.142 15.0473ZM28.1126 15.0473C27.077 15.0473 26.2377 14.2079 26.2377 13.1725C26.2377 12.137 27.0772 11.2976 28.1126 11.2976C29.148 11.2976 29.9874 12.1371 29.9874 13.1725C29.9874 14.2079 29.1482 15.0473 28.1126 15.0473ZM21.0832 15.0473C20.0476 15.0473 19.2082 14.2079 19.2082 13.1725C19.2082 12.137 20.0478 11.2976 21.0832 11.2976C22.1186 11.2976 22.958 12.1371 22.958 13.1725C22.958 14.2079 22.1188 15.0473 21.0832 15.0473Z" fill="#FFD13A"/>
<defs>
<linearGradient id="paint0_linear_650_7119" x1="35.9999" y1="1.52539" x2="35.9999" y2="70.4747" gradientUnits="userSpaceOnUse">
<stop stop-color="#FB129F"/>
<stop offset="1" stop-color="#7616F4"/>
</linearGradient>
</defs>
</svg>
