<svg width="72" height="72" viewBox="0 0 72 72" fill="none" xmlns="http://www.w3.org/2000/svg">
<path d="M69 15V57C69 58.65 68.413 60.063 67.239 61.239C66.065 62.415 64.652 63.002 63 63H54C53.15 63 52.438 62.712 51.864 62.136C51.29 61.56 51.002 60.848 51 60V33.075C51 32.075 50.787 31.15 50.361 30.3C49.935 29.45 49.323 28.75 48.525 28.2L32.85 16.95C32.2 16.45 31.675 15.85 31.275 15.15C30.875 14.45 30.675 13.75 30.675 13.05C30.675 11.8 31.075 10.813 31.875 10.089C32.675 9.365 33.75 9.002 35.1 9H63C64.65 9 66.063 9.588 67.239 10.764C68.415 11.94 69.002 13.352 69 15ZM52.5 27H55.5C55.9 27 56.2501 26.85 56.5501 26.55C56.85 26.25 57 25.9 57 25.5V22.5C57 22.1 56.85 21.75 56.5501 21.45C56.2501 21.15 55.9 21 55.5 21H52.5C52.1 21 51.75 21.15 51.45 21.45C51.15 21.75 51 22.1 51 22.5V25.5C51 25.9 51.15 26.25 51.45 26.55C51.75 26.85 52.1 27 52.5 27ZM52.5 39H55.5C55.9 39 56.2501 38.85 56.5501 38.55C56.85 38.25 57 37.9 57 37.5V34.5C57 34.1 56.85 33.75 56.5501 33.45C56.2501 33.15 55.9 33 55.5 33H52.5C52.1 33 51.75 33.15 51.45 33.45C51.15 33.75 51 34.1 51 34.5V37.5C51 37.9 51.15 38.25 51.45 38.55C51.75 38.85 52.1 39 52.5 39ZM52.5 51H55.5C55.9 51 56.2501 50.85 56.5501 50.55C56.85 50.25 57 49.9 57 49.5V46.5C57 46.1 56.85 45.75 56.5501 45.45C56.2501 45.15 55.9 45 55.5 45H52.5C52.1 45 51.75 45.15 51.45 45.45C51.15 45.75 51 46.1 51 46.5V49.5C51 49.9 51.15 50.25 51.45 50.55C51.75 50.85 52.1 51 52.5 51Z" fill="url(#paint0_linear_650_7135)"/>
<path d="M3.675 33.3001C3.225 34.1501 3 35.0751 3 36.0751V57.0001C3.002 58.6521 3.59 60.0651 4.764 61.2391C5.938 62.4131 7.35 63.0001 9 63.0001H12C13.652 63.0021 15.065 62.4151 16.239 61.2391C17.413 60.0631 18 58.6501 18 57.0001V49.5001C18.002 48.2521 18.44 47.1901 19.314 46.3141C20.188 45.4381 21.25 45.0001 22.5 45.0001H25.5C26.752 45.0021 27.815 45.4401 28.689 46.3141C29.563 47.1881 30 48.2501 30 49.5001V57.0001C30.002 58.6521 30.59 60.0651 31.764 61.2391C32.938 62.4131 34.35 63.0001 36 63.0001H39C40.652 63.0021 42.065 62.4151 43.239 61.2391C44.413 60.0631 45 58.6501 45 57.0001V36.0751C45 35.0751 44.775 34.1501 44.325 33.3001C43.875 32.4501 43.25 31.7501 42.45 31.2001L27.45 20.4751C26.904 20.0751 26.342 19.7881 25.764 19.6141C25.186 19.4401 24.598 19.3521 24 19.3501C23.402 19.3481 22.815 19.4351 22.239 19.6111C21.663 19.7871 21.1 20.0751 20.55 20.4751L5.55 31.2001C4.75 31.7501 4.125 32.4501 3.675 33.3001Z" fill="url(#paint1_linear_650_7135)"/>
<defs>
<linearGradient id="paint0_linear_650_7135" x1="30.675" y1="36.0092" x2="69.0065" y2="36.0092" gradientUnits="userSpaceOnUse">
<stop stop-color="#FF00A1"/>
<stop offset="0.11" stop-color="#EB00AF"/>
<stop offset="0.39" stop-color="#BE00D0"/>
<stop offset="0.65" stop-color="#9D00E8"/>
<stop offset="0.86" stop-color="#8900F7"/>
<stop offset="1" stop-color="#8200FD"/>
</linearGradient>
<linearGradient id="paint1_linear_650_7135" x1="5.82413" y1="30.269" x2="42.8844" y2="50.8569" gradientUnits="userSpaceOnUse">
<stop stop-color="white" stop-opacity="0.3"/>
<stop offset="0.19" stop-color="#FFE4B2" stop-opacity="0.51"/>
<stop offset="0.38" stop-color="#FFCD72" stop-opacity="0.68"/>
<stop offset="0.56" stop-color="#FFBB40" stop-opacity="0.82"/>
<stop offset="0.72" stop-color="#FFAF1D" stop-opacity="0.92"/>
<stop offset="0.88" stop-color="#FFA707" stop-opacity="0.98"/>
<stop offset="1" stop-color="#FFA500"/>
</linearGradient>
</defs>
</svg>
