<svg width="72" height="72" viewBox="0 0 72 72" fill="none" xmlns="http://www.w3.org/2000/svg">
<path d="M62.682 46.659C63.0372 47.3704 63.0956 48.1937 62.8441 48.948C62.5927 49.7024 62.052 50.3261 61.341 50.682L37.341 62.682C36.9246 62.8901 36.4655 62.9984 36 62.9984C35.5345 62.9984 35.0754 62.8901 34.659 62.682L10.659 50.682C9.97279 50.312 9.4576 49.6894 9.22252 48.946C8.98745 48.2027 9.05097 47.3971 9.39961 46.6998C9.74826 46.0025 10.3547 45.4683 11.0903 45.2104C11.826 44.9525 12.6332 44.9911 13.341 45.318L36 56.64L58.662 45.315C59.3734 44.9597 60.1967 44.9014 60.951 45.1529C61.7054 45.4043 62.329 45.945 62.685 46.656M62.685 34.656C63.0402 35.3674 63.0986 36.1907 62.8471 36.945C62.5957 37.6994 62.055 38.3231 61.344 38.679L37.344 50.679C36.9276 50.8871 36.4685 50.9954 36.003 50.9954C35.5375 50.9954 35.0784 50.8871 34.662 50.679L10.662 38.679C9.97579 38.309 9.4606 37.6864 9.22552 36.9431C8.99045 36.1997 9.05397 35.3941 9.40261 34.6968C9.75126 33.9995 10.3577 33.4653 11.0933 33.2074C11.829 32.9495 12.6362 32.9881 13.344 33.315L36 44.64L58.662 33.315C59.3734 32.9597 60.1967 32.9014 60.951 33.1529C61.7054 33.4043 62.329 33.945 62.685 34.656ZM36.024 9C36.136 9 36.247 9.007 36.357 9.021L36.69 9.081L36.948 9.153L36.984 9.171L37.02 9.177L37.107 9.219L37.257 9.276L37.305 9.303L37.341 9.318L61.341 21.318C61.8386 21.5674 62.2571 21.9504 62.5495 22.424C62.8419 22.8977 62.9968 23.4434 62.9968 24C62.9968 24.5566 62.8419 25.1023 62.5495 25.576C62.2571 26.0496 61.8386 26.4326 61.341 26.682L37.341 38.682C36.9246 38.8901 36.4655 38.9984 36 38.9984C35.5345 38.9984 35.0754 38.8901 34.659 38.682L10.659 26.682C10.1613 26.4326 9.74289 26.0496 9.45047 25.576C9.15805 25.1023 9.00317 24.5566 9.00317 24C9.00317 23.4434 9.15805 22.8977 9.45047 22.424C9.74289 21.9504 10.1613 21.5674 10.659 21.318L34.659 9.318L34.692 9.303L34.746 9.273L34.98 9.177L35.013 9.171L35.052 9.153L35.31 9.081L35.64 9.021L35.808 9.006L36.024 9Z" fill="url(#paint0_linear_650_7126)"/>
<defs>
<linearGradient id="paint0_linear_650_7126" x1="9.00317" y1="36.0084" x2="63.0102" y2="36.0084" gradientUnits="userSpaceOnUse">
<stop stop-color="#FF00A1"/>
<stop offset="0.11" stop-color="#EB00AF"/>
<stop offset="0.39" stop-color="#BE00D0"/>
<stop offset="0.65" stop-color="#9D00E8"/>
<stop offset="0.86" stop-color="#8900F7"/>
<stop offset="1" stop-color="#8200FD"/>
</linearGradient>
</defs>
</svg>
