<svg width="72" height="72" viewBox="0 0 72 72" fill="none" xmlns="http://www.w3.org/2000/svg">
<path fill-rule="evenodd" clip-rule="evenodd" d="M53.2455 34.083C53.2035 24.4605 52.848 17.2935 52.5075 12.5685C52.3418 10.1159 51.3049 7.80326 49.5838 6.04807C47.8627 4.29289 45.5709 3.21075 43.122 2.997C39.072 2.622 33.5865 2.25 27.75 2.25C21.945 2.25 16.485 2.6175 12.4425 2.991C9.97778 3.21043 7.67253 4.30313 5.94231 6.07213C4.2121 7.84112 3.17075 10.17 3.006 12.639C2.64 17.769 2.25 25.656 2.25 36C2.25 49.8765 2.601 60.0795 2.802 64.7655C2.86008 66.1091 3.4355 67.3781 4.40786 68.3072C5.38021 69.2362 6.67417 69.7532 8.019 69.75H62.6895C64.4191 69.7549 66.0834 69.0893 67.3325 67.893C68.5817 66.6966 69.3186 65.0627 69.3885 63.3345C69.549 59.2845 69.75 52.785 69.75 45.75C69.75 40.341 69.513 35.4705 69.258 31.791C68.898 26.607 64.86 22.494 59.643 22.131C58.969 22.085 58.257 22.04 57.507 21.996C57.651 25.9455 57.75 30.612 57.75 36C57.75 46.515 57.5625 54.678 57.3825 60.075C57.3628 60.6621 57.1142 61.2182 56.69 61.6244C56.2657 62.0307 55.6994 62.255 55.112 62.2493C54.5246 62.2436 53.9628 62.0084 53.5464 61.594C53.1301 61.1796 52.8924 60.6189 52.884 60.0315C53.1403 52.0236 53.2623 44.012 53.25 36C53.25 35.35 53.2485 34.711 53.2455 34.083ZM19.5 15C20.2956 15 21.0587 15.3161 21.6213 15.8787C22.1839 16.4413 22.5 17.2044 22.5 18V21C22.5 21.7956 22.1839 22.5587 21.6213 23.1213C21.0587 23.6839 20.2956 24 19.5 24C18.7044 24 17.9413 23.6839 17.3787 23.1213C16.8161 22.5587 16.5 21.7956 16.5 21V18C16.5 17.2044 16.8161 16.4413 17.3787 15.8787C17.9413 15.3161 18.7044 15 19.5 15ZM22.5 34.5C22.5 33.7044 22.1839 32.9413 21.6213 32.3787C21.0587 31.8161 20.2956 31.5 19.5 31.5C18.7044 31.5 17.9413 31.8161 17.3787 32.3787C16.8161 32.9413 16.5 33.7044 16.5 34.5V37.5C16.5 38.2957 16.8161 39.0587 17.3787 39.6213C17.9413 40.1839 18.7044 40.5 19.5 40.5C20.2956 40.5 21.0587 40.1839 21.6213 39.6213C22.1839 39.0587 22.5 38.2957 22.5 37.5V34.5ZM36 15C36.7957 15 37.5587 15.3161 38.1213 15.8787C38.6839 16.4413 39 17.2044 39 18V21C39 21.7956 38.6839 22.5587 38.1213 23.1213C37.5587 23.6839 36.7957 24 36 24C35.2043 24 34.4413 23.6839 33.8787 23.1213C33.3161 22.5587 33 21.7956 33 21V18C33 17.2044 33.3161 16.4413 33.8787 15.8787C34.4413 15.3161 35.2043 15 36 15ZM39 34.5C39 33.7044 38.6839 32.9413 38.1213 32.3787C37.5587 31.8161 36.7957 31.5 36 31.5C35.2043 31.5 34.4413 31.8161 33.8787 32.3787C33.3161 32.9413 33 33.7044 33 34.5V37.5C33 38.2957 33.3161 39.0587 33.8787 39.6213C34.4413 40.1839 35.2043 40.5 36 40.5C36.7957 40.5 37.5587 40.1839 38.1213 39.6213C38.6839 39.0587 39 38.2957 39 37.5V34.5ZM28.5 47.25C26.8845 47.25 25.59 47.3475 24.5625 47.49C21.8835 47.859 20.466 50.1525 20.3685 52.6275C20.2818 55.084 20.2423 57.542 20.25 60C20.25 61.7595 20.265 63.252 20.2875 64.515C20.2914 64.7113 20.3722 64.8982 20.5124 65.0357C20.6526 65.1731 20.8412 65.25 21.0375 65.25H35.9625C36.1588 65.25 36.3474 65.1731 36.4876 65.0357C36.6278 64.8982 36.7086 64.7113 36.7125 64.515C36.735 63.252 36.75 61.7595 36.75 60C36.75 56.6655 36.6975 54.291 36.6315 52.6275C36.534 50.1525 35.1165 47.859 32.4375 47.49C31.1321 47.3192 29.8165 47.239 28.5 47.25Z" fill="url(#paint0_linear_650_7122)"/>
<defs>
<linearGradient id="paint0_linear_650_7122" x1="2.25" y1="36.0115" x2="69.7614" y2="36.0115" gradientUnits="userSpaceOnUse">
<stop stop-color="#FF00A1"/>
<stop offset="0.11" stop-color="#EB00AF"/>
<stop offset="0.39" stop-color="#BE00D0"/>
<stop offset="0.65" stop-color="#9D00E8"/>
<stop offset="0.86" stop-color="#8900F7"/>
<stop offset="1" stop-color="#8200FD"/>
</linearGradient>
</defs>
</svg>
