<svg width="81" height="72" viewBox="0 0 81 72" fill="none" xmlns="http://www.w3.org/2000/svg">
<path d="M58.5 70.7344L78.8766 62.5781C80.1562 62.0719 81 60.8203 81 59.4422V21.375C81 18.9844 78.5953 17.3531 76.3734 18.2391L60.0609 24.7641C59.9906 24.9328 59.9203 25.1156 59.85 25.2844C59.4422 26.2406 58.9922 27.211 58.5 28.1813V70.7344ZM2.12344 26.3391C0.84375 26.8594 0 28.0969 0 29.475V67.5563C0 69.9469 2.40469 71.5781 4.62656 70.6922L22.5 63.5344V28.1813C22.0078 27.211 21.5578 26.2406 21.15 25.2844C20.3625 23.4281 19.6875 21.4313 19.35 19.4485L2.10938 26.3391H2.12344ZM54 35.8594C51.1172 40.261 48.0516 44.2406 46.0969 46.6875C43.2141 50.2875 37.7859 50.2875 34.9031 46.6875C32.9484 44.2406 29.8828 40.261 27 35.8594V63.1969L54 70.9172V35.8594Z" fill="url(#paint0_linear_650_7139)"/>
<path d="M57.375 16.875C57.375 24.5531 47.0953 38.2359 42.5812 43.875C41.5125 45.225 39.5016 45.225 38.4188 43.875C33.9047 38.2359 23.625 24.5531 23.625 16.875C23.625 7.55156 31.1766 0 40.5 0C49.8234 0 57.375 7.55156 57.375 16.875Z" fill="url(#paint1_linear_650_7139)"/>
<defs>
<linearGradient id="paint0_linear_650_7139" x1="0" y1="44.4747" x2="81.0137" y2="44.4747" gradientUnits="userSpaceOnUse">
<stop stop-color="#FF00A1"/>
<stop offset="0.11" stop-color="#EB00AF"/>
<stop offset="0.39" stop-color="#BE00D0"/>
<stop offset="0.65" stop-color="#9D00E8"/>
<stop offset="0.86" stop-color="#8900F7"/>
<stop offset="1" stop-color="#8200FD"/>
</linearGradient>
<linearGradient id="paint1_linear_650_7139" x1="25.8944" y1="11.2284" x2="58.6862" y2="25.4633" gradientUnits="userSpaceOnUse">
<stop stop-color="white" stop-opacity="0.3"/>
<stop offset="0.19" stop-color="#FFE4B2" stop-opacity="0.51"/>
<stop offset="0.38" stop-color="#FFCD72" stop-opacity="0.68"/>
<stop offset="0.56" stop-color="#FFBB40" stop-opacity="0.82"/>
<stop offset="0.72" stop-color="#FFAF1D" stop-opacity="0.92"/>
<stop offset="0.88" stop-color="#FFA707" stop-opacity="0.98"/>
<stop offset="1" stop-color="#FFA500"/>
</linearGradient>
</defs>
</svg>
