<svg width="96" height="96" viewBox="0 0 96 96" fill="none" xmlns="http://www.w3.org/2000/svg">
<path d="M67.7219 19.8213C52.1043 19.8213 39.4438 32.5802 39.4438 48.3189C39.4438 64.0577 52.1043 76.8165 67.7219 76.8165C83.3395 76.8165 96 64.0577 96 48.3189C96 32.5801 83.3395 19.8213 67.7219 19.8213Z" fill="url(#paint0_linear_303_1089)"/>
<path d="M0.00185797 48.1522C0.00185598 25.627 16.6635 7.2979 37.2015 7.2979L66.7696 7.2979C67.0988 7.30053 67.4239 7.37227 67.7241 7.50856C68.0243 7.64486 68.293 7.8427 68.513 8.08949C68.9849 8.61938 69.2424 9.30831 69.2347 10.0202L69.2347 86.2905C69.2527 86.6323 69.2029 86.9743 69.0882 87.2965C68.9735 87.6187 68.7962 87.9146 68.5667 88.1669C68.3371 88.4192 68.06 88.6228 67.7514 88.7658C67.4428 88.9089 67.1091 88.9885 66.7696 89L37.2015 89C26.9325 89 17.6342 84.4242 10.8967 77.0359C3.80914 69.1195 -0.0779751 58.8142 0.00185797 48.1522Z" fill="url(#paint1_linear_303_1089)"/>
<defs>
<linearGradient id="paint0_linear_303_1089" x1="39.4438" y1="48.3189" x2="96" y2="48.3189" gradientUnits="userSpaceOnUse">
<stop offset="0.13" stop-color="white" stop-opacity="0.3"/>
<stop offset="0.33" stop-color="#FFE5BD" stop-opacity="0.51"/>
<stop offset="0.55" stop-color="#FFCC7C" stop-opacity="0.72"/>
<stop offset="0.75" stop-color="#FFBA4C" stop-opacity="0.87"/>
<stop offset="0.9" stop-color="#FFAE2F" stop-opacity="0.97"/>
<stop offset="1" stop-color="#FFAA24"/>
</linearGradient>
<linearGradient id="paint1_linear_303_1089" x1="6.84147" y1="24.4042" x2="80.8413" y2="66.7967" gradientUnits="userSpaceOnUse">
<stop stop-color="#FB129F"/>
<stop offset="0.15" stop-color="#DF13B1"/>
<stop offset="0.42" stop-color="#B214CE"/>
<stop offset="0.66" stop-color="#9115E3"/>
<stop offset="0.86" stop-color="#7D16EF"/>
<stop offset="1" stop-color="#7616F4"/>
</linearGradient>
</defs>
</svg>
