<svg width="96" height="96" viewBox="0 0 96 96" fill="none" xmlns="http://www.w3.org/2000/svg">
<path d="M80.1842 61.5562C80.1842 47.6031 71.2579 35.697 58.8163 31.2441C62.883 28.0371 65.4981 23.0676 65.4981 17.4986C65.4982 7.84987 57.6486 0 47.9998 0C38.3511 0 30.5014 7.84987 30.5014 17.4984C30.5014 23.0674 33.1166 28.0369 37.1831 31.2439C24.7417 35.697 15.8154 47.6029 15.8154 61.5562C15.8154 67.1865 18.489 72.2032 22.6324 75.4061C23.0751 61.7957 34.2834 50.8594 47.9998 50.8594C61.7162 50.8594 72.9245 61.7957 73.3674 75.4061C77.5108 72.2031 80.1842 67.1863 80.1842 61.5562Z" fill="url(#paint0_linear_152_412)"/>
<path d="M48 56.4844C37.1055 56.4844 28.2422 65.3477 28.2422 76.2422C28.2422 87.1367 37.1055 96 48 96C58.8945 96 67.7578 87.1367 67.7578 76.2422C67.7578 65.3477 58.8945 56.4844 48 56.4844ZM46.3667 82.7809C46.3498 82.7811 46.3329 82.7812 46.3162 82.7812C45.5709 82.7812 44.8554 82.4854 44.3276 81.9574L40.7574 78.387C39.6591 77.2886 39.6591 75.5079 40.7574 74.4096C41.8558 73.3114 43.6367 73.3114 44.7349 74.4096L46.2439 75.9186L51.1952 70.5992C52.2538 69.4622 54.0336 69.3988 55.17 70.4569C56.307 71.5151 56.3708 73.2949 55.3125 74.4319L48.375 81.885C47.8551 82.4438 47.1298 82.7672 46.3667 82.7809Z" fill="#FFAE2F"/>
<defs>
<linearGradient id="paint0_linear_152_412" x1="80.1842" y1="37.7031" x2="15.8154" y2="37.7031" gradientUnits="userSpaceOnUse">
<stop stop-color="#FB129F"/>
<stop offset="1" stop-color="#7616F4"/>
</linearGradient>
</defs>
</svg>
