<svg width="96" height="96" viewBox="0 0 96 96" fill="none" xmlns="http://www.w3.org/2000/svg">
<path d="M24.0901 26.4477H78.6599V25.9377C78.6599 21.4377 75.03 17.8077 70.53 17.8077L35.9099 17.7776C35.7001 13.5177 32.1301 10.0977 27.8101 10.0977H14.1301C9.65991 10.0977 6 13.7277 6 18.2277V48.2878L13.2299 33.2878C15.2401 29.1478 19.5 26.4477 24.0901 26.4477Z" fill="url(#paint0_linear_152_421)"/>
<path d="M18.63 35.8798L6.29988 61.4699C5.84999 62.3999 5.90987 63.5099 6.45003 64.3798C7.02003 65.2499 7.97987 65.7899 8.99995 65.7899H49.77V62.1599C49.77 56.4898 53.0099 51.6298 57.6899 49.14C59.13 42.5399 65.0099 37.5898 72.03 37.5898C78.6599 37.5898 84.27 41.9999 86.07 48.0598L89.3999 41.1599C90.2999 39.2698 90.18 37.0799 89.07 35.3098C87.96 33.5099 86.0399 32.46 83.9399 32.46H24.09C21.78 32.46 19.6499 33.8098 18.63 35.8798Z" fill="url(#paint1_linear_152_421)"/>
<path d="M72.0293 43.582C67.2349 43.582 63.3354 47.4814 63.3354 52.2773V53.486C59.064 54.0925 55.7578 57.7357 55.7578 62.1709V77.0918C55.7578 81.9521 59.71 85.9043 64.5688 85.9043H79.4897C84.3486 85.9043 88.3008 81.9521 88.3008 77.0918V62.1709C88.3008 57.7357 84.9946 54.0925 80.7231 53.486V52.2773C80.7231 47.4814 76.8237 43.582 72.0293 43.582ZM74.7231 53.3613H69.3354V52.2773C69.3354 50.792 70.5439 49.582 72.0293 49.582C73.5146 49.582 74.7231 50.792 74.7231 52.2773V53.3613Z" fill="#FFAE2F"/>
<defs>
<linearGradient id="paint0_linear_152_421" x1="78.6599" y1="29.1927" x2="6" y2="29.1927" gradientUnits="userSpaceOnUse">
<stop stop-color="#FB129F"/>
<stop offset="1" stop-color="#7616F4"/>
</linearGradient>
<linearGradient id="paint1_linear_152_421" x1="89.9981" y1="49.1249" x2="5.99951" y2="49.1249" gradientUnits="userSpaceOnUse">
<stop stop-color="#FB129F"/>
<stop offset="1" stop-color="#7616F4"/>
</linearGradient>
</defs>
</svg>
