<svg width="96" height="96" viewBox="0 0 96 96" fill="none" xmlns="http://www.w3.org/2000/svg">
<path fill-rule="evenodd" clip-rule="evenodd" d="M41.08 75C37.16 69.52 35 62.84 35 56V44C35 43.64 35 43.32 35.04 43H9V64C9 70.08 13.92 75 20 75H41.08ZM20 17H72C78.08 17 83 21.92 83 28V28.56C80.88 27.56 78.48 27 76 27H52C45.12 27 39.2 31.12 36.56 37H9V28C9 21.92 13.92 17 20 17Z" fill="url(#paint0_linear_152_427)"/>
<path fill-rule="evenodd" clip-rule="evenodd" d="M87 44V56C87 64.452 82.96 72.528 76.2 77.6L73 80C70.416 81.932 67.224 83 64 83C60.776 83 57.584 81.932 55 80L51.8 77.6C45.04 72.528 41 64.452 41 56V44C41 37.932 45.932 33 52 33H76C82.068 33 87 37.932 87 44ZM70.336 49.504C71.716 48.584 73.58 48.96 74.496 50.336V50.34C75.416 51.72 75.044 53.58 73.664 54.5L61.664 62.5C61.156 62.836 60.58 63.004 60 63.004C59.228 63.004 58.46 62.704 57.88 62.124L53.88 58.124C52.708 56.952 52.708 55.052 53.88 53.88C55.052 52.708 56.952 52.708 58.124 53.88L60.384 56.14L70.336 49.504Z" fill="#FFAE2F"/>
<defs>
<linearGradient id="paint0_linear_152_427" x1="48" y1="17" x2="48" y2="83" gradientUnits="userSpaceOnUse">
<stop stop-color="#FB129F"/>
<stop offset="1" stop-color="#7616F4"/>
</linearGradient>
</defs>
</svg>
