<svg width="96" height="96" viewBox="0 0 96 96" fill="none" xmlns="http://www.w3.org/2000/svg">
<path d="M51.3593 36.0923C55.4871 36.0923 58.854 32.7256 58.854 28.5978V16.6077H71.7338C74.2059 16.6077 76.2287 18.6304 76.2287 21.1026V43.1716C76.2287 45.6438 74.2059 47.6665 71.7338 47.6665H65.8909V57.7834L57.4847 47.6665H43.9815C41.5095 47.6665 39.4866 45.6438 39.4866 43.1716V36.0923H51.3593Z" fill="#FFAE2F"/>
<path fill-rule="evenodd" clip-rule="evenodd" d="M84.7112 44.9127C83.025 48.7834 80.835 53.1627 79.077 56.3204C81.4988 59.8428 79.0123 64.3323 75.6124 68.2744C73.5915 70.6176 71.2864 72.7315 69.642 74.2394L69.6064 74.272C69.1019 74.7349 68.6612 75.1391 68.3657 75.4223C67.7655 75.9996 66.8108 75.9812 66.2333 75.3809C65.6559 74.7807 65.6743 73.8259 66.2745 73.2484C66.672 72.8674 67.104 72.4713 67.5981 72.0182L67.5989 72.0174C69.1988 70.5503 71.4412 68.494 73.332 66.3014C74.8106 64.5869 76.1031 62.7741 76.659 61.1365C77.5905 58.3923 75.642 56.5193 73.0956 57.1583C72.0999 57.4081 70.9944 58.0801 69.7944 59.2579C65.6554 63.3203 61.6423 66.682 57.0801 70.3769C50.5127 76.0904 50.82 85.9206 51.2259 93.9661H68.9168C69.6861 86.5315 71.9528 84.3606 75.0214 81.4218C75.6108 80.8573 76.2299 80.2645 76.8735 79.6006C77.1966 79.2673 77.5395 78.9382 77.8949 78.5972C79.5806 76.9793 81.5479 75.0912 83.0246 71.2017L92.4878 45.9486C93.1826 43.921 93.8543 41.488 93.9814 40.321C92.583 36.9451 88.284 36.7109 84.7112 44.9127ZM38.9198 58.9021C34.3575 55.2072 30.3444 51.8453 26.2054 47.7831C25.0054 46.6053 23.8999 45.9334 22.9043 45.6835C20.3578 45.0447 18.4093 46.9176 19.3408 49.6617C19.8968 51.2993 21.189 53.1121 22.6678 54.8266C24.5591 57.0194 26.8018 59.0763 28.4018 60.5434C28.8958 60.9964 29.3276 61.3926 29.7253 61.7736C30.3255 62.3509 30.3441 63.3057 29.7666 63.9061C29.1893 64.5063 28.2345 64.5248 27.6341 63.9473C27.3344 63.6602 26.8852 63.2482 26.3716 62.777L26.3578 62.7644L26.3564 62.7631C24.7123 61.2553 22.4079 59.142 20.3874 56.7994C16.9875 52.8573 14.5011 48.3678 16.9228 44.8454C15.1648 41.6877 12.975 37.3084 11.2886 33.4377C7.71582 25.2359 3.41644 25.4703 2.01807 28.846C2.14519 30.0128 2.81663 32.446 3.51169 34.4736L12.9748 59.7267C14.4515 63.6162 16.4188 65.5043 18.1046 67.1222C18.46 67.4632 18.8028 67.7923 19.1259 68.1256C19.7696 68.7895 20.3887 69.3824 20.9782 69.9469C24.0468 72.8857 26.3136 75.0566 27.0829 82.4911H44.7737C45.1796 74.4458 45.4873 64.6156 38.9198 58.9021Z" fill="url(#paint0_linear_152_430)"/>
<path fill-rule="evenodd" clip-rule="evenodd" d="M19.1121 28.5976V6.52863C19.1121 4.05644 21.1348 2.03369 23.607 2.03369H51.3594C53.8316 2.03369 55.8544 4.05644 55.8544 6.52863V28.5976C55.8544 31.0696 53.8314 33.0925 51.3594 33.0925H37.8563L29.4501 43.2094V33.0925H23.6072C21.135 33.0925 19.1121 31.0698 19.1121 28.5976ZM46.8559 20.0629C45.4751 20.0629 44.3559 18.9438 44.3559 17.5632C44.3559 16.1824 45.4753 15.0633 46.8559 15.0633C48.2364 15.0633 49.3556 16.1826 49.3556 17.5632C49.3556 18.9438 48.2366 20.0629 46.8559 20.0629ZM37.4833 20.0629C36.1026 20.0629 34.9834 18.9438 34.9834 17.5632C34.9834 16.1824 36.1028 15.0633 37.4833 15.0633C38.8639 15.0633 39.9831 16.1826 39.9831 17.5632C39.9831 18.9438 38.8641 20.0629 37.4833 20.0629ZM28.1108 20.0629C26.73 20.0629 25.6108 18.9438 25.6108 17.5632C25.6108 16.1824 26.7302 15.0633 28.1108 15.0633C29.4913 15.0633 30.6105 16.1826 30.6105 17.5632C30.6105 18.9438 29.4915 20.0629 28.1108 20.0629Z" fill="#FFD13A"/>
<defs>
<linearGradient id="paint0_linear_152_430" x1="47.9997" y1="2.03369" x2="47.9997" y2="93.9661" gradientUnits="userSpaceOnUse">
<stop stop-color="#FB129F"/>
<stop offset="1" stop-color="#7616F4"/>
</linearGradient>
</defs>
</svg>
