<svg width="96" height="96" viewBox="0 0 96 96" fill="none" xmlns="http://www.w3.org/2000/svg">
<path d="M47.9961 7.00143C74.593 7.00144 96.2352 26.7342 96.2352 51.058L96.2352 86.0763C96.2321 86.4662 96.1474 86.8512 95.9865 87.2067C95.8256 87.5622 95.5919 87.8804 95.3006 88.1411C94.6749 88.6999 93.8614 89.0048 93.0208 88.9957L2.96389 88.9957C2.5603 89.0171 2.15648 88.9581 1.77606 88.8223C1.39565 88.6864 1.04627 88.4764 0.748371 88.2046C0.450475 87.9327 0.210038 87.6045 0.041127 87.239C-0.127784 86.8736 -0.221775 86.4783 -0.235352 86.0763L-0.235351 51.058C-0.235351 38.8961 5.16761 27.8838 13.8914 19.9045C23.2387 11.5105 35.4068 6.90688 47.9961 7.00143Z" fill="url(#paint0_linear_152_238)"/>
<defs>
<linearGradient id="paint0_linear_152_238" x1="76.0368" y1="15.1018" x2="25.7538" y2="102.611" gradientUnits="userSpaceOnUse">
<stop stop-color="#FB129F"/>
<stop offset="0.15" stop-color="#DF13B1"/>
<stop offset="0.42" stop-color="#B214CE"/>
<stop offset="0.66" stop-color="#9115E3"/>
<stop offset="0.86" stop-color="#7D16EF"/>
<stop offset="1" stop-color="#7616F4"/>
</linearGradient>
</defs>
</svg>
