<svg width="96" height="96" viewBox="0 0 96 96" fill="none" xmlns="http://www.w3.org/2000/svg">
<g clip-path="url(#clip0_304_1702)">
<path d="M94.5 30H85.5V1.5C85.5 1.10218 85.342 0.720644 85.0607 0.43934C84.7794 0.158035 84.3978 0 84 0L69 0C68.6022 0 68.2206 0.158035 67.9393 0.43934C67.658 0.720644 67.5 1.10218 67.5 1.5V30H58.5C58.2131 29.9993 57.932 30.0809 57.6901 30.2351C57.4481 30.3893 57.2555 30.6096 57.135 30.87C57.0179 31.1316 56.9769 31.421 57.0167 31.7049C57.0565 31.9887 57.1755 32.2556 57.36 32.475L75.36 53.475C75.5008 53.6397 75.6756 53.7719 75.8724 53.8625C76.0692 53.9532 76.2833 54.0001 76.5 54.0001C76.7167 54.0001 76.9308 53.9532 77.1276 53.8625C77.3244 53.7719 77.4992 53.6397 77.64 53.475L95.64 32.475C95.8245 32.2556 95.9435 31.9887 95.9833 31.7049C96.0231 31.421 95.9821 31.1316 95.865 30.87C95.7445 30.6096 95.5519 30.3893 95.3099 30.2351C95.068 30.0809 94.7869 29.9993 94.5 30Z" fill="url(#paint0_linear_304_1702)"/>
<path d="M0.644531 38.6341L24.229 50.2801L26.632 38.4166L7.56403 30.6631L0.644531 38.6341Z" fill="#FFA707"/>
<path d="M32.8485 88.3814L24.0255 53.5334L0 41.6714L32.8485 88.3814Z" fill="#FFA707"/>
<path d="M37.7529 95.355C37.8943 95.5544 38.0814 95.7169 38.2985 95.8291C38.5156 95.9413 38.7565 95.9999 39.0009 95.9999C39.2453 95.9999 39.4861 95.9413 39.7033 95.8291C39.9204 95.7169 40.1075 95.5544 40.2489 95.355L40.2609 95.337L50.7264 54H27.2754L37.7409 95.337L37.7529 95.355Z" fill="#FFA707"/>
<path d="M48.3871 39H29.6131L27.1816 51H50.8186L48.3871 39Z" fill="#FFA707"/>
<path d="M63.2314 27L44.0104 21.0675C43.8646 21.0228 43.7129 21 43.5604 21H34.4434C34.2909 21 34.1392 21.0228 33.9934 21.0675L10.0879 28.4445L28.6684 36H49.3324L54.6619 33.8325C54.2447 33.1514 54.0167 32.3714 54.0016 31.5728C53.9865 30.7742 54.1848 29.9861 54.576 29.2898C54.9672 28.5934 55.5372 28.0141 56.227 27.6116C56.9169 27.2091 57.7017 26.9979 58.5004 27H63.2314Z" fill="#FFA707"/>
<path d="M66.2603 47.4673L53.9753 53.5333L45.1523 88.3813L70.4708 52.3783L66.2603 47.4673Z" fill="#FFA707"/>
<path d="M51.3672 38.4166L53.7702 50.2801L64.2387 45.1111L56.6562 36.2656L51.3672 38.4166Z" fill="#FFA707"/>
</g>
<defs>
<linearGradient id="paint0_linear_304_1702" x1="76.5" y1="0" x2="76.5" y2="54.0001" gradientUnits="userSpaceOnUse">
<stop stop-color="#FF00A1"/>
<stop offset="1" stop-color="#7616F4"/>
</linearGradient>
<clipPath id="clip0_304_1702">
<rect width="96" height="96" fill="white"/>
</clipPath>
</defs>
</svg>
