<svg width="96" height="96" viewBox="0 0 96 96" fill="none" xmlns="http://www.w3.org/2000/svg">
<path d="M59 41C58.6244 40.3392 58.1812 39.7253 57.6786 39.1698L46.7077 27.4123C46.192 26.8715 45.6189 26.3975 45 26V38.9202C45.001 39.4715 45.2057 39.9999 45.5694 40.3897C45.9332 40.7795 46.4262 40.999 46.9406 41H59Z" fill="url(#paint0_linear_304_1712)"/>
<path d="M46.7308 44.4255C45.1096 44.4233 43.5554 43.777 42.409 42.6283C41.2626 41.4796 40.6176 39.9223 40.6154 38.2979V24.1473C40.1753 24.0681 39.7303 24.0189 39.2836 24H18.1923C15.4902 24.0034 12.8997 25.0805 10.989 26.995C9.07829 28.9095 8.00338 31.5052 8 34.2128V77.7872C8.00338 80.4948 9.07829 83.0905 10.989 85.005C12.8997 86.9195 15.4902 87.9966 18.1923 88H50.8077C53.5098 87.9966 56.1003 86.9195 58.011 85.005C59.9217 83.0905 60.9966 80.4948 61 77.7872V45.76C60.982 45.3125 60.9345 44.8667 60.8576 44.4255H46.7308ZM37.2179 74.383H18.1923C17.6517 74.383 17.1332 74.1678 16.7509 73.7847C16.3686 73.4017 16.1538 72.8821 16.1538 72.3404C16.1538 71.7987 16.3686 71.2792 16.7509 70.8961C17.1332 70.5131 17.6517 70.2979 18.1923 70.2979H37.2179C37.7586 70.2979 38.2771 70.5131 38.6594 70.8961C39.0416 71.2792 39.2564 71.7987 39.2564 72.3404C39.2564 72.8821 39.0416 73.4017 38.6594 73.7847C38.2771 74.1678 37.7586 74.383 37.2179 74.383ZM48.0897 63.4894H18.1923C17.6517 63.4894 17.1332 63.2742 16.7509 62.8911C16.3686 62.5081 16.1538 61.9885 16.1538 61.4468C16.1538 60.9051 16.3686 60.3856 16.7509 60.0025C17.1332 59.6194 17.6517 59.4043 18.1923 59.4043H48.0897C48.6304 59.4043 49.1489 59.6194 49.5312 60.0025C49.9134 60.3856 50.1282 60.9051 50.1282 61.4468C50.1282 61.9885 49.9134 62.5081 49.5312 62.8911C49.1489 63.2742 48.6304 63.4894 48.0897 63.4894Z" fill="url(#paint1_linear_304_1712)"/>
<path d="M86 24C85.6249 23.3834 85.1822 22.8106 84.6802 22.2921L73.7079 11.3198C73.1922 10.8146 72.6189 10.3717 72 10V22.0591C72.001 22.5736 72.2057 23.0667 72.5695 23.4305C72.9333 23.7943 73.4264 23.999 73.9409 24H86Z" fill="#FFA707"/>
<path d="M73.7308 28.4255C72.1096 28.4233 70.5554 27.777 69.409 26.6283C68.2626 25.4796 67.6176 23.9223 67.6154 22.2979V8.14734C67.1753 8.06821 66.7303 8.01898 66.2836 8H45.1923C42.4894 8.00101 39.8976 9.07732 37.9864 10.9924C36.0752 12.9074 35.001 15.5045 35 18.2128V20.2553H39.1041C42.8837 20.2766 46.5041 21.7824 49.1877 24.4494L60.7118 35.9966C61.9002 37.1919 62.8747 38.5829 63.5928 40.1089C64.0695 41.1616 64.4176 42.268 64.6294 43.4043H75.0897C75.6304 43.4043 76.1489 43.6194 76.5312 44.0025C76.9134 44.3856 77.1282 44.9051 77.1282 45.4468C77.1282 45.9885 76.9134 46.5081 76.5312 46.8911C76.1489 47.2742 75.6304 47.4894 75.0897 47.4894H64.8974V72H77.8077C80.5106 71.999 83.1024 70.9227 85.0136 69.0076C86.9248 67.0926 87.999 64.4955 88 61.7872V29.76C87.9821 29.3126 87.9354 28.8669 87.8603 28.4255H73.7308Z" fill="#FFA707"/>
<defs>
<linearGradient id="paint0_linear_304_1712" x1="52" y1="26" x2="52" y2="41" gradientUnits="userSpaceOnUse">
<stop stop-color="#FF00A1"/>
<stop offset="1" stop-color="#7616F4"/>
</linearGradient>
<linearGradient id="paint1_linear_304_1712" x1="34.5" y1="24" x2="34.5" y2="88" gradientUnits="userSpaceOnUse">
<stop stop-color="#FF00A1"/>
<stop offset="1" stop-color="#7616F4"/>
</linearGradient>
</defs>
</svg>
