<svg width="96" height="66" viewBox="0 0 96 66" fill="none" xmlns="http://www.w3.org/2000/svg">
<path d="M0 31.7812V37.4528H39.5522C39.4935 35.5374 39.8127 33.6156 40.508 31.7812H0Z" fill="#FF00A1"/>
<path d="M50.2005 14.8604H8.55229C3.83658 14.8604 0 18.6969 0 23.4126V26.1565H43.5606L50.2005 14.8604Z" fill="#FF00A1"/>
<path d="M41.5409 44.4223C41.2887 43.9815 41.0604 43.5327 40.8558 43.0776H0V57.1179C0 61.8334 3.83658 65.67 8.55229 65.67H64.8497C69.5654 65.67 73.402 61.8334 73.402 57.1179V51.937H54.4984C49.0772 51.937 44.2333 49.1279 41.5409 44.4223Z" fill="url(#paint0_linear_304_1696)"/>
<path d="M78.6114 4.91894C76.9221 2.04549 73.9238 0.32959 70.5904 0.32959C67.257 0.32959 64.2587 2.0453 62.5695 4.91894L46.4784 32.2936V32.2938C44.7663 35.2064 44.7459 38.6963 46.4239 41.629C48.1019 44.5617 51.1207 46.3123 54.4994 46.3123H86.6812C90.06 46.3123 93.0787 44.5615 94.7568 41.629C96.4348 38.6965 96.4143 35.2064 94.7022 32.2936L78.6114 4.91894ZM70.5904 35.1489C69.0138 35.1489 67.8463 33.8602 67.7781 32.3365C67.71 30.8177 69.1194 29.5242 70.5904 29.5242C72.167 29.5242 73.3345 30.8128 73.4027 32.3365C73.4708 33.8554 72.0614 35.1489 70.5904 35.1489ZM73.4027 23.3928C73.4027 24.9459 72.1436 26.2051 70.5904 26.2051C69.0373 26.2051 67.7781 24.9459 67.7781 23.3928V17.9848C67.7781 16.4317 69.0373 15.1725 70.5904 15.1725C72.1436 15.1725 73.4027 16.4317 73.4027 17.9848V23.3928Z" fill="#FFA707"/>
<defs>
<linearGradient id="paint0_linear_304_1696" x1="36.701" y1="43.0776" x2="36.701" y2="65.67" gradientUnits="userSpaceOnUse">
<stop stop-color="#FF00A1"/>
<stop offset="1" stop-color="#7616F4"/>
</linearGradient>
</defs>
</svg>
