<svg width="96" height="96" viewBox="0 0 96 96" fill="none" xmlns="http://www.w3.org/2000/svg">
<path d="M47.9971 7.00143C74.594 7.00144 96.2362 26.7342 96.2362 51.058L96.2362 86.0763C96.2331 86.4662 96.1484 86.8512 95.9875 87.2067C95.8265 87.5622 95.5929 87.8804 95.3015 88.1411C94.6759 88.6999 93.8624 89.0048 93.0218 88.9957L2.96486 88.9957C2.56128 89.0171 2.15745 88.9581 1.77704 88.8223C1.39663 88.6864 1.04724 88.4764 0.749348 88.2046C0.451451 87.9327 0.211014 87.6045 0.0421036 87.239C-0.126807 86.8736 -0.220799 86.4783 -0.234375 86.0763L-0.234375 51.058C-0.234374 38.8961 5.16858 27.8838 13.8924 19.9045C23.2397 11.5105 35.4078 6.90688 47.9971 7.00143Z" fill="url(#paint0_linear_303_1513)"/>
<defs>
<linearGradient id="paint0_linear_303_1513" x1="76.0378" y1="15.1018" x2="25.7547" y2="102.611" gradientUnits="userSpaceOnUse">
<stop stop-color="#FB129F"/>
<stop offset="0.15" stop-color="#DF13B1"/>
<stop offset="0.42" stop-color="#B214CE"/>
<stop offset="0.66" stop-color="#9115E3"/>
<stop offset="0.86" stop-color="#7D16EF"/>
<stop offset="1" stop-color="#7616F4"/>
</linearGradient>
</defs>
</svg>
